<svg width="22" height="18" viewBox="0 0 22 18" fill="none" xmlns="http://www.w3.org/2000/svg">
<path d="M19.7083 14.5L13.6191 9M8.38096 9L2.29171 14.5M1.83334 4.41666L9.31785 9.65582C9.92393 10.0801 10.227 10.2922 10.5566 10.3744C10.8477 10.4469 11.1523 10.4469 11.4434 10.3744C11.7731 10.2922 12.0761 10.0801 12.6822 9.65582L20.1667 4.41666M6.23334 16.3333H15.7667C17.3068 16.3333 18.0769 16.3333 18.6651 16.0336C19.1826 15.7699 19.6033 15.3493 19.8669 14.8318C20.1667 14.2435 20.1667 13.4735 20.1667 11.9333V6.06666C20.1667 4.52652 20.1667 3.75645 19.8669 3.16819C19.6033 2.65074 19.1826 2.23005 18.6651 1.9664C18.0769 1.66666 17.3068 1.66666 15.7667 1.66666H6.23334C4.6932 1.66666 3.92313 1.66666 3.33487 1.9664C2.81742 2.23005 2.39673 2.65074 2.13308 3.16819C1.83334 3.75645 1.83334 4.52652 1.83334 6.06666V11.9333C1.83334 13.4735 1.83334 14.2435 2.13308 14.8318C2.39673 15.3493 2.81742 15.7699 3.33487 16.0336C3.92313 16.3333 4.6932 16.3333 6.23334 16.3333Z" stroke="white" stroke-width="2" stroke-linecap="round" stroke-linejoin="round"/>
</svg>
