<svg width="16" height="21" viewBox="0 0 16 21" fill="none" xmlns="http://www.w3.org/2000/svg">
<path d="M15.89 8.55001C15.8069 8.3851 15.6798 8.24642 15.5227 8.14934C15.3656 8.05226 15.1847 8.00057 15 8.00001H10V2.00001C10.0107 1.7807 9.94899 1.56394 9.82429 1.38321C9.69958 1.20248 9.51886 1.06782 9.31001 1.00001C9.10924 0.933956 8.8927 0.933213 8.69148 0.997892C8.49025 1.06257 8.3147 1.18934 8.19001 1.36001L0.190014 12.36C0.0897798 12.5049 0.0295928 12.6737 0.0155447 12.8493C0.00149653 13.0249 0.034086 13.2011 0.110014 13.36C0.179936 13.5418 0.301402 13.6991 0.459504 13.8128C0.617605 13.9265 0.805462 13.9916 1.00001 14H6.00001V20C6.00017 20.2109 6.06698 20.4163 6.19091 20.5869C6.31483 20.7576 6.48952 20.8846 6.69001 20.95C6.79049 20.9812 6.89485 20.998 7.00001 21C7.1578 21.0004 7.31344 20.9635 7.45422 20.8922C7.595 20.821 7.71692 20.7174 7.81001 20.59L15.81 9.59001C15.9178 9.44081 15.9822 9.26477 15.9964 9.08127C16.0105 8.89777 15.9737 8.71394 15.89 8.55001ZM8.00001 16.92V13C8.00001 12.7348 7.89466 12.4804 7.70712 12.2929C7.51958 12.1054 7.26523 12 7.00001 12H3.00001L8.00001 5.08001V9.00001C8.00001 9.26523 8.10537 9.51958 8.29291 9.70712C8.48044 9.89466 8.7348 10 9.00001 10H13L8.00001 16.92Z" fill="#232427"/>
</svg>
